<svg xmlns="http://www.w3.org/2000/svg" width="32.408" height="39.253" viewBox="0 0 32.408 39.253">
  <g id="Group_137" data-name="Group 137" transform="translate(-714.724 -375.778)">
    <path id="Path_8" data-name="Path 8" d="M717.1,399.915a2.386,2.386,0,0,0-2.372,2.428v10.113a2.373,2.373,0,1,0,4.744,0V402.343a2.386,2.386,0,0,0-2.372-2.428Zm27.664,0a2.386,2.386,0,0,0-2.372,2.428v10.113a2.373,2.373,0,1,0,4.744,0V402.343a2.387,2.387,0,0,0-2.372-2.428Z" transform="translate(0 -11.394)" fill="#000000"/>
    <path id="Path_9" data-name="Path 9" d="M736.308,421.776a2.414,2.414,0,0,0-2.428,2.428v10.113a2.428,2.428,0,0,0,4.856,0V424.2a2.414,2.414,0,0,0-2.428-2.428Zm8.09,0a2.414,2.414,0,0,0-2.428,2.428v10.113a2.428,2.428,0,0,0,4.856,0V424.2a2.414,2.414,0,0,0-2.428-2.428Z" transform="translate(-9.426 -21.715)" fill="#000000"/>
    <g id="Group_134" data-name="Group 134" transform="translate(720.101 375.778)">
      <path id="Path_10" data-name="Path 10" d="M741.77,379.381l1.71-3.09a.347.347,0,0,0-.3-.513.339.339,0,0,0-.3.178l-1.733,3.123a11.674,11.674,0,0,0-9.37,0l-1.733-3.123a.34.34,0,0,0-.3-.178.347.347,0,0,0-.3.513l1.711,3.09a9.9,9.9,0,0,0-5.518,8.7h21.655A9.894,9.894,0,0,0,741.77,379.381Zm-10.307,4.737a.9.9,0,1,1,.9-.9A.91.91,0,0,1,731.463,384.118Zm9.995,0a.9.9,0,1,1,.9-.9A.909.909,0,0,1,741.457,384.118Z" transform="translate(-725.633 -375.778)" fill="#000000"/>
      <path id="Path_11" data-name="Path 11" d="M725.633,416.4a2.612,2.612,0,0,0,2.617,2.617H744.67a2.612,2.612,0,0,0,2.618-2.617V400.7H725.633Z" transform="translate(-725.633 -387.544)" fill="#000000"/>
    </g>
  </g>
</svg>
