<svg xmlns="http://www.w3.org/2000/svg" width="41.309" height="20.914" viewBox="0 0 41.309 20.914">
    <defs>
        <style>.a{fill:#000000;}</style>
    </defs>
    <path class="a" d="M13.121,18.07a1.742,1.742,0,1,1-1.731,1.749,1.693,1.693,0,0,1,1.731-1.749Zm14.666.859c5.137,0,8.3,3.845,8.3,10.012,0,6.152-3.139,10.027-8.3,10.027-5.194,0-8.346-3.86-8.346-10.027C19.441,22.759,22.664,18.929,27.787,18.929Zm18.2,0c3.617,0,6.263,2.262,6.432,5.489h-2.7c-.267-1.764-1.689-2.865-3.772-2.865-2.2,0-3.645,1.116-3.645,2.85,0,1.357.929,2.141,3.265,2.729l1.956.513c3.673.92,5.179,2.5,5.179,5.383,0,3.664-2.646,5.956-6.883,5.956-3.955,0-6.615-2.186-6.812-5.609h2.745c.239,1.809,1.9,2.97,4.279,2.97,2.224,0,3.856-1.236,3.856-2.94,0-1.448-1.027-2.322-3.392-2.925l-2.308-.588c-3.223-.814-4.7-2.488-4.7-5.293,0-3.408,2.6-5.67,6.5-5.67Zm-18.2,2.759c-3.364,0-5.5,2.82-5.5,7.253,0,4.418,2.069,7.268,5.5,7.268,3.392,0,5.475-2.85,5.475-7.268C33.262,24.509,31.179,21.689,27.787,21.689ZM11.8,24.086h2.646v14.43H11.8Z" transform="translate(-11.39 -18.07)" />
</svg>