<svg xmlns="http://www.w3.org/2000/svg" width="35.112" height="13.453" viewBox="0 0 35.112 13.453">
  <g id="Group_251" data-name="Group 251" transform="translate(-1309.23 -419.756)">
    <path id="Path_134" data-name="Path 134" d="M1309.23,419.951h2.088l6.615,11.115c-.006-.161-.018-.511-.033-1.049s-.023-1.035-.023-1.494v-8.572h1.6v13.072h-2.19l-6.513-11.04q.009.25.024.937t.014,1.419v8.684h-1.578Z" fill="#000000"/>
    <path id="Path_135" data-name="Path 135" d="M1322.115,419.951h8.4v1.633h-6.634V425.5h6.086v1.613h-6.086v4.277h7.014v1.633h-8.777Z" fill="#000000"/>
    <path id="Path_136" data-name="Path 136" d="M1334.957,432.341a5.605,5.605,0,0,1-2.1-2.4,8.075,8.075,0,0,1-.729-3.511,7.86,7.86,0,0,1,.747-3.53,5.416,5.416,0,0,1,2.129-2.324,6.272,6.272,0,0,1,3.247-.817,6.2,6.2,0,0,1,3.229.822,5.43,5.43,0,0,1,2.125,2.333,8.705,8.705,0,0,1-.02,7.079,5.62,5.62,0,0,1-2.147,2.379,6.068,6.068,0,0,1-3.206.84A6.006,6.006,0,0,1,1334.957,432.341Zm5.622-1.42a4.037,4.037,0,0,0,1.466-1.818,6.767,6.767,0,0,0,.5-2.676,6.235,6.235,0,0,0-.528-2.644,4.076,4.076,0,0,0-1.5-1.763,4.117,4.117,0,0,0-2.269-.622,4.185,4.185,0,0,0-2.306.622,4.02,4.02,0,0,0-1.489,1.758,6.326,6.326,0,0,0-.519,2.649,6.41,6.41,0,0,0,.529,2.672,4.225,4.225,0,0,0,1.5,1.822,3.957,3.957,0,0,0,2.263.655A4.1,4.1,0,0,0,1340.579,430.921Z" fill="#000000"/>
  </g>
</svg>
